<svg width="20" height="19" viewBox="0 0 20 19" fill="none" xmlns="http://www.w3.org/2000/svg">
<path d="M9.6 0C12.2083 0 12.5338 0.00942995 13.5571 0.0565799C14.5795 0.10373 15.2755 0.261211 15.888 0.495075C16.5216 0.734597 17.0554 1.05899 17.5891 1.58235C18.0773 2.05376 18.455 2.62398 18.696 3.25335C18.9331 3.85404 19.0944 4.53866 19.1424 5.54295C19.1875 6.54819 19.2 6.86787 19.2 9.43C19.2 11.9921 19.1904 12.3118 19.1424 13.317C19.0944 14.3213 18.9331 15.005 18.696 15.6066C18.4557 16.2364 18.0779 16.8067 17.5891 17.2776C17.1091 17.757 16.5286 18.128 15.888 18.3649C15.2765 18.5978 14.5795 18.7563 13.5571 18.8034C12.5338 18.8477 12.2083 18.86 9.6 18.86C6.99168 18.86 6.66624 18.8506 5.64288 18.8034C4.62048 18.7563 3.92448 18.5978 3.312 18.3649C2.67103 18.1287 2.09043 17.7576 1.61088 17.2776C1.12263 16.8063 0.744894 16.2361 0.504 15.6066C0.26592 15.006 0.1056 14.3213 0.0575999 13.317C0.0124799 12.3118 0 11.9921 0 9.43C0 6.86787 0.00959994 6.54819 0.0575999 5.54295C0.1056 4.53772 0.26592 3.85498 0.504 3.25335C0.744227 2.6236 1.12205 2.05321 1.61088 1.58235C2.09056 1.10259 2.67113 0.731513 3.312 0.495075C3.92448 0.261211 4.61952 0.10373 5.64288 0.0565799C6.66624 0.0122589 6.99168 0 9.6 0ZM9.6 4.715C8.32696 4.715 7.10606 5.21176 6.20589 6.09599C5.30571 6.98023 4.8 8.1795 4.8 9.43C4.8 10.6805 5.30571 11.8798 6.20589 12.764C7.10606 13.6482 8.32696 14.145 9.6 14.145C10.873 14.145 12.0939 13.6482 12.9941 12.764C13.8943 11.8798 14.4 10.6805 14.4 9.43C14.4 8.1795 13.8943 6.98023 12.9941 6.09599C12.0939 5.21176 10.873 4.715 9.6 4.715V4.715ZM15.84 4.47925C15.84 4.16663 15.7136 3.86681 15.4885 3.64575C15.2635 3.42469 14.9583 3.3005 14.64 3.3005C14.3217 3.3005 14.0165 3.42469 13.7915 3.64575C13.5664 3.86681 13.44 4.16663 13.44 4.47925C13.44 4.79187 13.5664 5.09169 13.7915 5.31275C14.0165 5.53381 14.3217 5.658 14.64 5.658C14.9583 5.658 15.2635 5.53381 15.4885 5.31275C15.7136 5.09169 15.84 4.79187 15.84 4.47925ZM9.6 6.601C10.3638 6.601 11.0964 6.89905 11.6365 7.42959C12.1766 7.96014 12.48 8.6797 12.48 9.43C12.48 10.1803 12.1766 10.8999 11.6365 11.4304C11.0964 11.9609 10.3638 12.259 9.6 12.259C8.83618 12.259 8.10364 11.9609 7.56353 11.4304C7.02343 10.8999 6.72 10.1803 6.72 9.43C6.72 8.6797 7.02343 7.96014 7.56353 7.42959C8.10364 6.89905 8.83618 6.601 9.6 6.601V6.601Z" fill="#D5D8DD"/>
</svg>
