<svg width="20" height="19" viewBox="0 0 20 19" fill="none" xmlns="http://www.w3.org/2000/svg">
<path d="M9.59998 0C4.29799 0 0 4.22257 0 9.43152C0 14.6405 4.29799 18.863 9.59998 18.863C14.902 18.863 19.2 14.6405 19.2 9.43152C19.2 4.22257 14.902 0 9.59998 0ZM7.24998 13.3407H5.30599V7.19448H7.24998V13.3407ZM6.26598 6.43996C5.65199 6.43996 5.25499 6.01259 5.25499 5.48403C5.25499 4.94467 5.66399 4.53008 6.29098 4.53008C6.91798 4.53008 7.30198 4.94467 7.31398 5.48403C7.31398 6.01259 6.91798 6.43996 6.26598 6.43996ZM14.35 13.3407H12.406V9.93453C12.406 9.1417 12.124 8.60331 11.421 8.60331C10.884 8.60331 10.565 8.9678 10.424 9.31854C10.372 9.44331 10.359 9.62015 10.359 9.79601V13.3397H8.41398V9.15447C8.41398 8.38717 8.38898 7.74563 8.36298 7.1935H10.052L10.141 8.04725H10.18C10.436 7.64641 11.063 7.05497 12.112 7.05497C13.391 7.05497 14.35 7.89693 14.35 9.7066V13.3407Z" fill="#D5D8DD"/>
</svg>
