<svg width="52" height="25" viewBox="0 0 52 25" fill="none" xmlns="http://www.w3.org/2000/svg">
<rect y="22" width="52" height="3" rx="1.5" fill="#CB594B"/>
<path d="M11.556 6.256C11.472 7.396 11.43 8.416 11.43 9.316C11.43 9.88 11.448 10.336 11.484 10.684H11.07C10.782 9.208 10.386 8.17 9.882 7.57C9.39 6.97 8.712 6.67 7.848 6.67H7.434V16.948C7.434 17.452 7.482 17.818 7.578 18.046C7.686 18.274 7.866 18.43 8.118 18.514C8.382 18.586 8.796 18.628 9.36 18.64V19C7.848 18.964 6.708 18.946 5.94 18.946C5.184 18.946 4.086 18.964 2.646 19V18.64C3.21 18.628 3.618 18.586 3.87 18.514C4.134 18.43 4.314 18.274 4.41 18.046C4.518 17.818 4.572 17.452 4.572 16.948V6.67H4.176C3.6 6.67 3.108 6.796 2.7 7.048C2.304 7.3 1.962 7.72 1.674 8.308C1.386 8.884 1.14 9.676 0.936 10.684H0.522C0.558 10.336 0.576 9.88 0.576 9.316C0.576 8.416 0.534 7.396 0.45 6.256C1.542 6.292 3.396 6.31 6.012 6.31C8.628 6.31 10.476 6.292 11.556 6.256ZM19.1694 6.004C20.4414 6.004 21.5514 6.262 22.4994 6.778C23.4594 7.294 24.2034 8.044 24.7314 9.028C25.2594 10 25.5234 11.164 25.5234 12.52C25.5234 13.84 25.2534 15.01 24.7134 16.03C24.1734 17.05 23.4174 17.842 22.4454 18.406C21.4854 18.97 20.3874 19.252 19.1514 19.252C17.8794 19.252 16.7634 18.994 15.8034 18.478C14.8554 17.962 14.1174 17.218 13.5894 16.246C13.0614 15.262 12.7974 14.092 12.7974 12.736C12.7974 11.416 13.0674 10.246 13.6074 9.226C14.1474 8.206 14.8974 7.414 15.8574 6.85C16.8294 6.286 17.9334 6.004 19.1694 6.004ZM19.0974 6.328C18.4374 6.328 17.8554 6.598 17.3514 7.138C16.8474 7.666 16.4574 8.41 16.1814 9.37C15.9174 10.33 15.7854 11.428 15.7854 12.664C15.7854 13.912 15.9354 15.01 16.2354 15.958C16.5474 16.906 16.9614 17.638 17.4774 18.154C18.0054 18.67 18.5874 18.928 19.2234 18.928C19.8834 18.928 20.4654 18.664 20.9694 18.136C21.4734 17.596 21.8574 16.846 22.1214 15.886C22.3974 14.926 22.5354 13.828 22.5354 12.592C22.5354 11.344 22.3794 10.246 22.0674 9.298C21.7674 8.35 21.3534 7.618 20.8254 7.102C20.3094 6.586 19.7334 6.328 19.0974 6.328ZM38.287 6.616C37.891 6.676 37.597 6.778 37.405 6.922C37.225 7.066 37.099 7.294 37.027 7.606C36.967 7.918 36.937 8.38 36.937 8.992V13.762C36.937 15.478 36.691 16.75 36.199 17.578C35.875 18.106 35.407 18.52 34.795 18.82C34.183 19.108 33.433 19.252 32.545 19.252C31.153 19.252 30.073 18.952 29.305 18.352C28.753 17.908 28.381 17.35 28.189 16.678C27.997 15.994 27.901 15.04 27.901 13.816V8.164C27.901 7.708 27.865 7.378 27.793 7.174C27.733 6.97 27.607 6.832 27.415 6.76C27.235 6.688 26.947 6.64 26.551 6.616V6.256C27.163 6.292 28.099 6.31 29.359 6.31C30.607 6.31 31.561 6.292 32.221 6.256V6.616C31.789 6.64 31.471 6.688 31.267 6.76C31.075 6.832 30.943 6.97 30.871 7.174C30.799 7.378 30.763 7.708 30.763 8.164V14.95C30.763 16.21 30.943 17.14 31.303 17.74C31.675 18.328 32.323 18.622 33.247 18.622C34.447 18.622 35.293 18.22 35.785 17.416C36.277 16.6 36.523 15.448 36.523 13.96V9.208C36.523 8.512 36.481 7.996 36.397 7.66C36.313 7.324 36.151 7.084 35.911 6.94C35.671 6.784 35.293 6.676 34.777 6.616V6.256C35.233 6.292 35.881 6.31 36.721 6.31C37.393 6.31 37.915 6.292 38.287 6.256V6.616ZM51.4351 18.208C51.1111 18.58 50.7631 18.844 50.3911 19C50.0191 19.168 49.5691 19.252 49.0411 19.252C48.3451 19.252 47.7931 19.108 47.3851 18.82C46.9891 18.52 46.7311 18.016 46.6111 17.308L46.2871 15.508C46.1311 14.632 45.9391 13.99 45.7111 13.582C45.4951 13.162 45.1291 12.952 44.6131 12.952H43.4431V17.092C43.4431 17.548 43.4731 17.878 43.5331 18.082C43.6051 18.286 43.7311 18.424 43.9111 18.496C44.0911 18.568 44.3851 18.616 44.7931 18.64V19C44.1451 18.964 43.2391 18.946 42.0751 18.946C40.7911 18.946 39.8431 18.964 39.2311 19V18.64C39.6271 18.616 39.9151 18.568 40.0951 18.496C40.2871 18.424 40.4131 18.286 40.4731 18.082C40.5451 17.878 40.5811 17.548 40.5811 17.092V8.164C40.5811 7.708 40.5451 7.378 40.4731 7.174C40.4131 6.97 40.2871 6.832 40.0951 6.76C39.9151 6.688 39.6271 6.64 39.2311 6.616V6.256C39.8431 6.292 40.7551 6.31 41.9671 6.31L43.9651 6.292C44.2051 6.28 44.4811 6.274 44.7931 6.274C46.4491 6.274 47.6911 6.544 48.5191 7.084C49.3591 7.624 49.7791 8.398 49.7791 9.406C49.7791 10.258 49.4671 11.008 48.8431 11.656C48.2191 12.304 47.1871 12.712 45.7471 12.88C46.8271 12.976 47.6311 13.21 48.1591 13.582C48.6871 13.954 49.0291 14.512 49.1851 15.256L49.5991 17.11C49.6951 17.59 49.8031 17.926 49.9231 18.118C50.0551 18.31 50.2351 18.406 50.4631 18.406C50.6071 18.394 50.7271 18.358 50.8231 18.298C50.9311 18.238 51.0511 18.136 51.1831 17.992L51.4351 18.208ZM44.5591 6.616C44.2351 6.616 43.9951 6.658 43.8391 6.742C43.6951 6.826 43.5931 6.976 43.5331 7.192C43.4731 7.408 43.4431 7.732 43.4431 8.164V12.592H44.2171C45.2011 12.592 45.8731 12.334 46.2331 11.818C46.6051 11.29 46.7911 10.552 46.7911 9.604C46.7911 8.62 46.6171 7.876 46.2691 7.372C45.9211 6.868 45.3511 6.616 44.5591 6.616Z" fill="white"/>
</svg>
