<svg width="24" height="21" viewBox="0 0 24 21" fill="none" xmlns="http://www.w3.org/2000/svg">
<g id="icon/communication/call_24px">
<path id="icon/communication/call_24px_2" d="M19.2218 13.3596L16.6818 13.1059C16.0718 13.0446 15.4718 13.2284 15.0418 13.6046L13.2018 15.2146C10.3718 13.9546 8.05179 11.9334 6.61179 9.44837L8.46179 7.82962C8.89179 7.45337 9.10179 6.92837 9.03179 6.39462L8.74179 4.18962C8.62179 3.30587 7.77179 2.64087 6.75179 2.64087H5.02179C3.89179 2.64087 2.95179 3.46337 3.02179 4.45212C3.55179 11.9246 10.3818 17.8921 18.9118 18.3559C20.0418 18.4171 20.9818 17.5946 20.9818 16.6059V15.0921C20.9918 14.2084 20.2318 13.4646 19.2218 13.3596Z" fill="#CB594B"/>
</g>
</svg>
