<svg width="20" height="19" viewBox="0 0 20 19" fill="none" xmlns="http://www.w3.org/2000/svg">
<path d="M9.59998 0C4.29799 0 0 4.22257 0 9.43152C0 14.6405 4.29799 18.863 9.59998 18.863C14.902 18.863 19.2 14.6405 19.2 9.43152C19.2 4.22257 14.902 0 9.59998 0ZM13.505 7.72599C13.509 7.80655 13.51 7.88711 13.51 7.9657C13.51 10.4218 11.609 13.2523 8.13098 13.2523C7.10328 13.2539 6.09695 12.964 5.23299 12.4172C5.37999 12.4349 5.53099 12.4417 5.68399 12.4417C6.56998 12.4417 7.38498 12.146 8.03198 11.6469C7.6377 11.6393 7.25565 11.5111 6.93909 11.28C6.62253 11.049 6.38723 10.7266 6.26598 10.358C6.54914 10.4109 6.84083 10.3998 7.11898 10.3255C6.69103 10.2405 6.30618 10.0127 6.02969 9.68073C5.7532 9.34875 5.60209 8.93304 5.60199 8.50409V8.48149C5.85698 8.62002 6.14898 8.70451 6.45898 8.71433C6.05778 8.45195 5.77377 8.04889 5.66503 7.58759C5.55629 7.12629 5.63104 6.64161 5.87398 6.23266C6.34894 6.80641 6.94124 7.27577 7.61255 7.61036C8.28386 7.94495 9.0192 8.1373 9.77098 8.17496C9.6754 7.77639 9.71653 7.35797 9.88798 6.98473C10.0594 6.6115 10.3516 6.30437 10.719 6.1111C11.0865 5.91782 11.5086 5.84923 11.9199 5.91599C12.3311 5.98275 12.7083 6.18111 12.993 6.48024C13.4161 6.39798 13.8219 6.24549 14.193 6.02929C14.0519 6.45974 13.7566 6.82525 13.362 7.05792C13.7368 7.01356 14.1028 6.91456 14.448 6.76417C14.1944 7.13739 13.8751 7.46312 13.505 7.72599Z" fill="#D5D8DD"/>
</svg>
